<svg width="17" height="17" viewBox="0 0 17 17" fill="none" xmlns="http://www.w3.org/2000/svg">
<path d="M13.5683 2.05859C13.9323 2.05859 14.2814 2.2032 14.5388 2.4606C14.7962 2.71801 14.9408 3.06712 14.9408 3.43114V13.039C14.9408 13.403 14.7962 13.7521 14.5388 14.0095C14.2814 14.2669 13.9323 14.4115 13.5683 14.4115H3.96044C3.59642 14.4115 3.2473 14.2669 2.9899 14.0095C2.7325 13.7521 2.58789 13.403 2.58789 13.039V3.43114C2.58789 3.06712 2.7325 2.71801 2.9899 2.4606C3.2473 2.2032 3.59642 2.05859 3.96044 2.05859H13.5683ZM13.2251 12.6958V9.05859C13.2251 8.46524 12.9894 7.89618 12.5699 7.47662C12.1503 7.05705 11.5812 6.82134 10.9879 6.82134C10.4046 6.82134 9.72515 7.1782 9.39573 7.7135V6.95173H7.48103V12.6958H9.39573V9.31252C9.39573 8.78408 9.82122 8.35173 10.3497 8.35173C10.6045 8.35173 10.8489 8.45296 11.029 8.63314C11.2092 8.81332 11.3104 9.0577 11.3104 9.31252V12.6958H13.2251ZM5.25064 5.87428C5.55641 5.87428 5.84967 5.75281 6.06589 5.53659C6.28211 5.32037 6.40358 5.02712 6.40358 4.72134C6.40358 4.0831 5.88887 3.56154 5.25064 3.56154C4.94304 3.56154 4.64804 3.68373 4.43053 3.90123C4.21303 4.11874 4.09083 4.41374 4.09083 4.72134C4.09083 5.35957 4.6124 5.87428 5.25064 5.87428ZM6.20456 12.6958V6.95173H4.30358V12.6958H6.20456Z" fill="currentColor"/>
</svg>
