<svg width="18" height="17" viewBox="0 0 18 17" fill="none" xmlns="http://www.w3.org/2000/svg">
<path d="M16.1781 4.11669C15.6497 4.35689 15.0801 4.51473 14.4899 4.59022C15.0938 4.22649 15.5605 3.65002 15.7801 2.95689C15.2105 3.30002 14.5791 3.54022 13.9134 3.67747C13.3713 3.08728 12.6095 2.74414 11.7448 2.74414C10.1321 2.74414 8.81443 4.06179 8.81443 5.68826C8.81443 5.92159 8.84188 6.14806 8.88992 6.36081C6.44678 6.23728 4.27129 5.06375 2.82325 3.2863C2.56933 3.71865 2.42521 4.22649 2.42521 4.76179C2.42521 5.78434 2.93992 6.69022 3.73599 7.20493C3.24874 7.20493 2.7958 7.06767 2.39776 6.86179V6.88238C2.39776 8.30983 3.41345 9.50394 4.75854 9.77159C4.32669 9.88977 3.87332 9.90622 3.43403 9.81963C3.62043 10.4047 3.98548 10.9166 4.47787 11.2834C4.97026 11.6502 5.56522 11.8535 6.17913 11.8647C5.13849 12.6886 3.84854 13.1339 2.52129 13.1275C2.28796 13.1275 2.05462 13.1137 1.82129 13.0863C3.12521 13.9236 4.67619 14.4108 6.33698 14.4108C11.7448 14.4108 14.7164 9.92257 14.7164 6.0314C14.7164 5.901 14.7164 5.77747 14.7095 5.64708C15.286 5.23532 15.7801 4.71375 16.1781 4.11669Z" fill="currentColor"/>
</svg>
